PathFileType	4	(X/Y/Z)	./resultDataOpenSim/trcMotMarkerGrf/sub10/qtm-14-06.trc
DataRate	CameraRate	NumFrames	NumMarkers	Units	OrigDataRate	OrigDataStartFrame	OrigNumFrames
250.000000	250.000000	6	24	m	250.000000	367	488
Frame#	Time	L.Toe.Tip			R.Toe.Tip			L.Ankle.Lat			R.Ankle.Lat			L.Ankle.Med			R.Ankle.Med			L.Heel			R.Heel			L.Knee.Lat			R.Knee.Lat			L.Knee.Med			R.Knee.Med			L.Thigh.Upper			R.Thigh.Upper			L.ASIS			R.ASIS			V.Sacral			L.Acromium			R.Acromium			C7			L.Elbow			R.Elbow			L.Wrist.Lat			R.Wrist.Lat
		X1	Y1	Z1	X2	Y2	Z2	X3	Y3	Z3	X4	Y4	Z4	X5	Y5	Z5	X6	Y6	Z6	X7	Y7	Z7	X8	Y8	Z8	X9	Y9	Z9	X10	Y10	Z10	X11	Y11	Z11	X12	Y12	Z12	X13	Y13	Z13	X14	Y14	Z14	X15	Y15	Z15	X16	Y16	Z16	X17	Y17	Z17	X18	Y18	Z18	X19	Y19	Z19	X20	Y20	Z20	X21	Y21	Z21	X22	Y22	Z22	X23	Y23	Z23	X24	Y24	Z24

367	1.464	0.8836354	0.10970468	-0.22349956	0.95381791	0.038895595	-0.057288509	0.8355341	0.24017162	-0.24650712	0.81363135	0.070025506	-0.019358527	0.86486888	0.24194685	-0.16569367	0.84215469	0.099375146	-0.099110175	0.77439238	0.26757587	-0.19798466	0.76200559	0.056575825	-0.0684993	1.1001362	0.50388899	-0.25060959	0.94397192	0.44962757	0.037519678	1.1209939	0.47324316	-0.13163414	0.957962	0.4600821	-0.087961618	0.9528156	0.85457282	-0.26126392	0.94222842	0.85895808	0.12052746	1.0072759	0.95952684	-0.19078311	1.0200342	0.95306407	0.050504071	0.81408317	0.98167416	-0.062072942	0.97101108	1.4496351	-0.19104952	0.94449189	1.4375134	0.11342579	0.89193569	1.4680404	-0.045575469	0.82191238	1.1588153	-0.32167689	0.82424044	1.1106381	0.17611625	0.97650851	0.99724467	-0.43855644	0.92593405	0.96974985	0.35515269
368	1.468	0.90053137	0.10641095	-0.22447009	0.95394798	0.03890714	-0.057308815	0.84856773	0.23558202	-0.24689301	0.81376753	0.070619117	-0.019549418	0.87673379	0.23782705	-0.16571119	0.84248345	0.10003667	-0.099125518	0.78655817	0.26124501	-0.19841958	0.76234607	0.057447845	-0.06850021	1.10766	0.50518319	-0.24937082	0.94439843	0.45021479	0.037758207	1.1283298	0.47510884	-0.13063122	0.95876225	0.46067652	-0.087719582	0.9592109	0.85603078	-0.26141105	0.94496993	0.85962983	0.12037023	1.0128632	0.96077949	-0.19029865	1.023782	0.95391683	0.051084107	0.81870234	0.98223342	-0.062930739	0.97543892	1.4504074	-0.19114352	0.94906402	1.4380204	0.1136888	0.89650622	1.4688309	-0.045441911	0.82467047	1.159458	-0.31966127	0.82929328	1.1104663	0.17629179	0.97743808	0.99586298	-0.43598673	0.93523928	0.96969657	0.35286043
369	1.472	0.91745663	0.1031741	-0.22523873	0.95404328	0.038895335	-0.05732056	0.8617301	0.23088425	-0.24724386	0.81389813	0.071216933	-0.019721732	0.88900886	0.2336017	-0.16576324	0.84295196	0.10067381	-0.099155783	0.79884037	0.25477129	-0.19883131	0.76271048	0.058250017	-0.068520725	1.1150662	0.50636454	-0.24811857	0.9448249	0.45079492	0.037983525	1.1361003	0.47668143	-0.12936542	0.95971578	0.46124235	-0.087496491	0.96562431	0.85740321	-0.26152997	0.94774558	0.86029807	0.12019786	1.0184817	0.96196954	-0.18978576	1.0275151	0.95475427	0.05164013	0.823358	0.98273017	-0.063913869	0.97986153	1.4511107	-0.19124014	0.95372705	1.4384415	0.11389803	0.90108074	1.4695654	-0.045310804	0.82746098	1.1600674	-0.31768354	0.83438501	1.1102171	0.1765388	0.97837648	0.99446623	-0.43344179	0.94451499	0.96963567	0.35055226
370	1.476	0.93441815	0.10004454	-0.22582687	0.95407242	0.038872542	-0.057310169	0.87500734	0.22609557	-0.2475474	0.81402672	0.071815734	-0.019872485	0.90204289	0.22926694	-0.16594118	0.84346373	0.10127842	-0.099176116	0.81126217	0.24816879	-0.19923182	0.76302893	0.058959366	-0.06867475	1.1223556	0.50743618	-0.24686184	0.94527611	0.4513623	0.038195422	1.1443185	0.47797047	-0.12791267	0.9609266	0.46167948	-0.087239551	0.97204188	0.85867694	-0.26163045	0.95056609	0.86096146	0.12001164	1.0241817	0.96312652	-0.18925463	1.031252	0.95556286	0.052173236	0.82801636	0.9831869	-0.06508616	0.98427412	1.4517516	-0.19135294	0.95862203	1.4387222	0.11399784	0.90565746	1.4702474	-0.045189219	0.83028583	1.1606444	-0.31575851	0.83951345	1.1099135	0.17682854	0.97933456	0.99307071	-0.43092626	0.95376393	0.96955713	0.34822511
371	1.48	0.95146834	0.097045567	-0.22629745	0.95402381	0.038868214	-0.057267935	0.88840046	0.22122838	-0.24780124	0.81415823	0.072412409	-0.020005225	0.91581858	0.22484013	-0.16623837	0.84389854	0.10186224	-0.099204213	0.82384863	0.24146041	-0.19963285	0.763275	0.059627759	-0.06895391	1.1295295	0.50840109	-0.24560957	0.94575228	0.45191653	0.038402862	1.1524147	0.47910992	-0.12659323	0.96236218	0.46196335	-0.086872013	0.97844551	0.85984749	-0.2617265	0.95343697	0.86161379	0.11981378	1.0299245	0.96425	-0.1887143	1.0349857	0.95633067	0.052686837	0.83266418	0.98364427	-0.066386217	0.98868495	1.4523407	-0.19149454	0.96378933	1.4388431	0.1139739	0.91023386	1.470873	-0.045090887	0.8331427	1.1611993	-0.31389711	0.84468259	1.1095785	0.17713847	0.98032548	0.99169159	-0.42844138	0.96298137	0.96945239	0.34587938
372	1.484	0.96862249	0.094161288	-0.22668135	0.95394612	0.038898909	-0.057207724	0.90191744	0.21628785	-0.24800609	0.81429603	0.073008994	-0.020122317	0.92992825	0.22035567	-0.16654131	0.84419113	0.10244294	-0.099292975	0.83659422	0.23466339	-0.20001689	0.76348187	0.060319554	-0.069251763	1.1365889	0.50926211	-0.24437078	0.94623004	0.4524615	0.038616458	1.1598057	0.4802209	-0.12561586	0.96387685	0.46215477	-0.086377603	0.98483558	0.86093797	-0.26182422	0.95636011	0.86225176	0.11960655	1.0355731	0.96528981	-0.18816165	1.0387068	0.95705047	0.053183983	0.83732265	0.98413724	-0.067729833	0.99311347	1.4528899	-0.19167093	0.96903371	1.4388709	0.11390566	0.91480513	1.4714294	-0.045028777	0.8360279	1.1617425	-0.31210487	0.84990813	1.1092192	0.17747809	0.98135016	0.99031386	-0.42598159	0.97216301	0.96931894	0.3435195
